<svg width="482" height="508" viewBox="0 0 482 508" fill="none" xmlns="http://www.w3.org/2000/svg">
  <path
    d="M206.46 506.4L7.80004 412.91C5.58608 411.868 3.71452 410.217 2.40412 408.15C1.09371 406.084 0.398588 403.687 0.400027 401.24V13.0999C0.398921 11.0049 0.927337 8.94369 1.93617 7.10763C2.94501 5.27157 4.40154 3.72027 6.17046 2.59786C7.93937 1.47545 9.96329 0.818335 12.0542 0.68757C14.145 0.556805 16.2351 0.956642 18.13 1.84991L216.79 95.3399C219.004 96.3799 220.877 98.0286 222.189 100.093C223.501 102.158 224.199 104.554 224.2 107V495.15C224.199 497.245 223.669 499.306 222.659 501.142C221.649 502.978 220.192 504.529 218.422 505.651C216.653 506.773 214.629 507.43 212.537 507.561C210.446 507.692 208.356 507.293 206.46 506.4Z"
    fill="#3E3A39" />
  <path
    d="M463.76 439.31L265.1 345.82C262.885 344.778 261.012 343.128 259.7 341.061C258.388 338.995 257.691 336.598 257.69 334.15V141.15C257.685 126.236 260.661 111.471 266.443 97.7235C272.225 83.9759 280.697 71.5227 291.36 61.0958C302.024 50.6689 314.664 42.4786 328.538 37.0064C342.412 31.5341 357.24 28.8901 372.15 29.23C401.377 29.8988 429.181 41.9787 449.615 62.8855C470.049 83.7923 481.49 111.866 481.49 141.1V428.1C481.484 430.192 480.951 432.248 479.939 434.079C478.928 435.909 477.471 437.455 475.703 438.573C473.935 439.691 471.914 440.344 469.826 440.473C467.738 440.602 465.652 440.202 463.76 439.31Z"
    fill="#3E3A39" />
</svg>