<svg width="482" height="508" viewBox="0 0 482 508" fill="none" stroke="#f5f5f5" stroke-width="4px"
  xmlns="http://www.w3.org/2000/svg">
  <path
    d="M206.46 506.233L7.80004 412.743C5.58608 411.701 3.71452 410.05 2.40412 407.983C1.09371 405.917 0.398588 403.52 0.400027 401.073V12.9329C0.398921 10.838 0.927337 8.7767 1.93617 6.94064C2.94501 5.10458 4.40154 3.55328 6.17046 2.43087C7.93937 1.30846 9.96329 0.651343 12.0542 0.520578C14.145 0.389813 16.2351 0.789649 18.13 1.68292L216.79 95.1729C219.004 96.2129 220.877 97.8616 222.189 99.9264C223.501 101.991 224.199 104.387 224.2 106.833V494.983C224.199 497.078 223.669 499.139 222.659 500.975C221.649 502.811 220.192 504.362 218.422 505.484C216.653 506.606 214.629 507.263 212.537 507.394C210.446 507.525 208.356 507.126 206.46 506.233Z" />
  <path
    d="M463.76 439.143L265.1 345.653C262.885 344.611 261.012 342.961 259.7 340.894C258.388 338.828 257.691 336.431 257.69 333.983V140.983C257.685 126.069 260.661 111.304 266.443 97.5565C272.225 83.8089 280.697 71.3557 291.36 60.9288C302.024 50.5019 314.664 42.3116 328.538 36.8394C342.412 31.3671 357.24 28.7232 372.15 29.063C401.377 29.7318 429.181 41.8117 449.615 62.7185C470.049 83.6253 481.49 111.699 481.49 140.933V427.933C481.484 430.025 480.951 432.081 479.939 433.912C478.928 435.742 477.471 437.288 475.703 438.406C473.935 439.524 471.914 440.177 469.826 440.306C467.738 440.435 465.652 440.035 463.76 439.143Z" />
</svg>