<svg width="354" height="235" viewBox="0 0 354 235" fill="none" xmlns="http://www.w3.org/2000/svg">
  <g opacity="1" filter="url(#filter0_ddd_1024_3531)">
    <rect x="20.343" y="20" width="323" height="204.872" rx="10" fill="#f0f0f0" />
  </g>
  <path
    d="M40.0555 162.53H47.1915V160.626H44.9675V150.69H43.2235C42.4555 151.154 41.6555 151.458 40.4555 151.682V153.138H42.6155V160.626H40.0555V162.53ZM52.901 162.754C55.285 162.754 56.885 161.394 56.885 159.602C56.885 157.97 55.989 157.026 54.901 156.434V156.354C55.669 155.794 56.421 154.818 56.421 153.634C56.421 151.746 55.077 150.498 52.981 150.498C50.917 150.498 49.397 151.714 49.397 153.618C49.397 154.866 50.069 155.778 50.965 156.434V156.498C49.877 157.074 48.949 158.082 48.949 159.602C48.949 161.458 50.629 162.754 52.901 162.754ZM53.653 155.778C52.405 155.282 51.477 154.722 51.477 153.618C51.477 152.674 52.117 152.146 52.933 152.146C53.909 152.146 54.501 152.818 54.501 153.794C54.501 154.498 54.229 155.17 53.653 155.778ZM52.949 161.09C51.845 161.09 50.965 160.402 50.965 159.33C50.965 158.45 51.413 157.65 52.069 157.138C53.589 157.778 54.693 158.274 54.693 159.506C54.693 160.53 53.973 161.09 52.949 161.09ZM60.2265 156.69C61.0585 156.69 61.6985 156.034 61.6985 155.154C61.6985 154.29 61.0585 153.634 60.2265 153.634C59.3785 153.634 58.7705 154.29 58.7705 155.154C58.7705 156.034 59.3785 156.69 60.2265 156.69ZM60.2265 162.754C61.0585 162.754 61.6985 162.098 61.6985 161.218C61.6985 160.338 61.0585 159.698 60.2265 159.698C59.3785 159.698 58.7705 160.338 58.7705 161.218C58.7705 162.098 59.3785 162.754 60.2265 162.754ZM67.5576 162.754C69.9576 162.754 71.5576 160.658 71.5576 156.562C71.5576 152.482 69.9576 150.482 67.5576 150.482C65.1416 150.482 63.5416 152.482 63.5416 156.562C63.5416 160.658 65.1416 162.754 67.5576 162.754ZM67.5576 160.914C66.5336 160.914 65.7656 159.89 65.7656 156.562C65.7656 153.25 66.5336 152.29 67.5576 152.29C68.5816 152.29 69.3336 153.25 69.3336 156.562C69.3336 159.89 68.5816 160.914 67.5576 160.914ZM76.9951 162.754C79.3951 162.754 80.9951 160.658 80.9951 156.562C80.9951 152.482 79.3951 150.482 76.9951 150.482C74.5791 150.482 72.9791 152.482 72.9791 156.562C72.9791 160.658 74.5791 162.754 76.9951 162.754ZM76.9951 160.914C75.9711 160.914 75.2031 159.89 75.2031 156.562C75.2031 153.25 75.9711 152.29 76.9951 152.29C78.0191 152.29 78.7711 153.25 78.7711 156.562C78.7711 159.89 78.0191 160.914 76.9951 160.914ZM86.1056 158.802H90.4896V157.122H86.1056V158.802ZM95.5565 162.53H103.493V160.546H100.933C100.373 160.546 99.5885 160.626 98.9965 160.69C101.157 158.578 102.949 156.274 102.949 154.114C102.949 151.906 101.445 150.482 99.2205 150.482C97.6045 150.482 96.5325 151.106 95.4445 152.274L96.7405 153.554C97.3485 152.882 98.0365 152.322 98.9165 152.322C100.053 152.322 100.677 153.058 100.677 154.242C100.677 156.066 98.7885 158.29 95.5565 161.186V162.53ZM105.618 162.53H112.754V160.626H110.53V150.69H108.786C108.018 151.154 107.218 151.458 106.018 151.682V153.138H108.178V160.626H105.618V162.53ZM116.352 156.69C117.184 156.69 117.824 156.034 117.824 155.154C117.824 154.29 117.184 153.634 116.352 153.634C115.504 153.634 114.896 154.29 114.896 155.154C114.896 156.034 115.504 156.69 116.352 156.69ZM116.352 162.754C117.184 162.754 117.824 162.098 117.824 161.218C117.824 160.338 117.184 159.698 116.352 159.698C115.504 159.698 114.896 160.338 114.896 161.218C114.896 162.098 115.504 162.754 116.352 162.754ZM123.683 162.754C126.083 162.754 127.683 160.658 127.683 156.562C127.683 152.482 126.083 150.482 123.683 150.482C121.267 150.482 119.667 152.482 119.667 156.562C119.667 160.658 121.267 162.754 123.683 162.754ZM123.683 160.914C122.659 160.914 121.891 159.89 121.891 156.562C121.891 153.25 122.659 152.29 123.683 152.29C124.707 152.29 125.459 153.25 125.459 156.562C125.459 159.89 124.707 160.914 123.683 160.914ZM133.12 162.754C135.52 162.754 137.12 160.658 137.12 156.562C137.12 152.482 135.52 150.482 133.12 150.482C130.704 150.482 129.104 152.482 129.104 156.562C129.104 160.658 130.704 162.754 133.12 162.754ZM133.12 160.914C132.096 160.914 131.328 159.89 131.328 156.562C131.328 153.25 132.096 152.29 133.12 152.29C134.144 152.29 134.896 153.25 134.896 156.562C134.896 159.89 134.144 160.914 133.12 160.914Z"
    fill="#616161" />
  <path
    d="M46.5515 184.794V186.442H52.6315V184.794H46.5515ZM45.0475 187.674V189.322H54.0075V187.674H45.0475ZM45.3035 181.786V184.874H46.9995V183.418H52.1515V184.874H53.9275V181.786H45.3035ZM46.5515 190.058C46.0875 191.098 45.3515 192.298 44.6795 193.082C45.0955 193.322 45.8315 193.834 46.1675 194.122C46.8395 193.226 47.7195 191.802 48.2955 190.586L46.5515 190.058ZM50.9035 190.618C51.4955 191.674 52.2475 193.098 52.5675 193.946L54.2155 193.226C53.8635 192.394 53.0635 191.018 52.4555 190.026L50.9035 190.618ZM48.1835 180.266C48.4715 180.986 48.7915 181.946 48.9035 182.57L50.8395 182.074C50.6795 181.466 50.3435 180.554 50.0235 179.85L48.1835 180.266ZM48.6315 188.298V194.922H50.5195V188.298H48.6315ZM42.7755 186.618C43.1115 187.706 43.4315 189.13 43.5435 189.978L44.9035 189.514C44.7915 188.698 44.4075 187.306 44.0555 186.266L42.7755 186.618ZM41.3995 190.73C41.5595 191.818 41.7355 193.226 41.7515 194.154L43.1115 193.818C43.0635 192.89 42.8875 191.514 42.6795 190.426L41.3995 190.73ZM39.7195 190.506C39.6235 191.834 39.4475 193.274 39.0795 194.218C39.4475 194.314 40.1035 194.522 40.4075 194.682C40.7435 193.69 40.9835 192.17 41.1115 190.73L39.7195 190.506ZM39.6875 186.298C39.6875 185.978 40.6955 185.434 40.6955 185.434V185.386C41.5915 184.122 42.5675 182.25 43.1915 180.554L41.5115 179.898C41.0795 181.578 40.2155 183.37 39.9275 183.834C39.6715 184.314 39.4155 184.634 39.1115 184.698C39.3195 185.146 39.5915 185.962 39.6875 186.298ZM39.6875 186.298C39.9755 186.138 40.4715 186.01 42.9195 185.69C42.9035 185.354 42.9515 184.73 43.0315 184.298L40.3275 184.57L39.6235 185.05L39.6875 186.298ZM39.7995 190.01C39.7995 189.722 40.7435 189.194 40.7435 189.194V189.146C42.2155 187.578 43.7195 185.338 44.7915 183.162L43.2555 182.362C42.4075 184.506 40.8875 186.826 40.4235 187.386C39.9595 187.978 39.6395 188.346 39.2555 188.458C39.4475 188.874 39.7195 189.69 39.7995 190.01ZM39.7995 190.01C40.1355 189.818 40.6955 189.642 43.8955 189.002C43.8635 188.65 43.8795 188.026 43.9275 187.578L40.3915 188.202L39.6875 188.698L39.7995 190.01ZM42.9995 190.378C43.3035 191.226 43.6395 192.314 43.7835 193.05L45.0635 192.57C44.9195 191.882 44.5515 190.81 44.2315 189.978L42.9995 190.378ZM62.1995 184.778V186.426H68.8075V184.778H62.1995ZM60.9835 187.626V189.338H70.1515V187.626H60.9835ZM60.9355 181.818V184.986H62.7115V183.466H68.2475V184.986H70.0715V181.818H60.9355ZM62.9675 188.458C62.8235 190.97 62.5035 192.538 59.5755 193.418C59.9755 193.786 60.4715 194.506 60.6635 194.97C64.0715 193.786 64.6315 191.642 64.8075 188.458H62.9675ZM65.8155 188.41V192.618C65.8155 194.218 66.1195 194.746 67.5435 194.746C67.8155 194.746 68.3755 194.746 68.6635 194.746C69.7995 194.746 70.2475 194.138 70.3915 191.93C69.9115 191.802 69.1595 191.53 68.8075 191.226C68.7755 192.874 68.7115 193.13 68.4555 193.13C68.3435 193.13 67.9755 193.13 67.8795 193.13C67.6555 193.13 67.6235 193.066 67.6235 192.602V188.41H65.8155ZM64.0075 180.298C64.3755 180.986 64.7595 181.946 64.8875 182.57L66.7915 181.946C66.6155 181.354 66.2155 180.458 65.8315 179.77L64.0075 180.298ZM55.8475 180.57V194.922H57.5275V182.282H59.5275V180.57H55.8475ZM59.0795 180.57V181.114C58.8555 182.106 58.3595 184.202 57.8955 185.61C58.8075 186.73 59.0155 187.786 59.0155 188.554C59.0155 189.018 58.9195 189.37 58.7275 189.514C58.6155 189.594 58.4555 189.626 58.2955 189.642C58.1035 189.658 57.8795 189.642 57.6075 189.626C57.8635 190.09 58.0235 190.81 58.0235 191.274C58.3915 191.274 58.7755 191.274 59.0635 191.226C59.4155 191.178 59.7195 191.066 59.9755 190.874C60.4875 190.49 60.6955 189.802 60.6955 188.762C60.6955 187.818 60.5035 186.682 59.5275 185.418C59.9915 184.17 60.5035 182.57 60.9195 181.21L59.6715 180.506L59.3995 180.57H59.0795ZM72.0555 193.53H79.1915V191.626H76.9675V181.69H75.2235C74.4555 182.154 73.6555 182.458 72.4555 182.682V184.138H74.6155V191.626H72.0555V193.53ZM81.493 193.53H88.629V191.626H86.405V181.69H84.661C83.893 182.154 83.093 182.458 81.893 182.682V184.138H84.053V191.626H81.493V193.53ZM95.0105 193.53H97.2025V181.69H94.3705L89.9705 188.858V190.474H98.6105V188.666H92.2585L94.0825 185.722C94.4185 185.082 94.7385 184.426 95.0425 183.786H95.1065C95.0745 184.49 95.0105 185.562 95.0105 186.25V193.53Z"
    fill="#616161" />
  <path
    d="M284.522 191.453L288.962 185.273L290.122 185.193C289.949 185.5 289.755 185.773 289.542 186.013C289.342 186.24 289.082 186.42 288.762 186.553C288.455 186.673 288.042 186.733 287.522 186.733C286.669 186.733 285.882 186.533 285.162 186.133C284.455 185.72 283.889 185.166 283.462 184.473C283.049 183.766 282.842 182.966 282.842 182.073C282.842 181.14 283.075 180.3 283.542 179.553C284.009 178.806 284.635 178.213 285.422 177.773C286.209 177.333 287.095 177.113 288.082 177.113C289.069 177.113 289.955 177.333 290.742 177.773C291.529 178.2 292.149 178.786 292.602 179.533C293.069 180.266 293.302 181.1 293.302 182.033C293.302 183.233 292.889 184.44 292.062 185.653L288.082 191.453H284.522ZM288.082 184.393C288.495 184.393 288.869 184.293 289.202 184.093C289.535 183.893 289.795 183.626 289.982 183.293C290.169 182.946 290.262 182.56 290.262 182.133C290.262 181.693 290.169 181.3 289.982 180.953C289.795 180.606 289.535 180.34 289.202 180.153C288.869 179.953 288.495 179.853 288.082 179.853C287.655 179.853 287.275 179.953 286.942 180.153C286.622 180.34 286.362 180.606 286.162 180.953C285.975 181.3 285.882 181.693 285.882 182.133C285.882 182.56 285.975 182.946 286.162 183.293C286.362 183.626 286.629 183.893 286.962 184.093C287.295 184.293 287.669 184.393 288.082 184.393ZM300.487 191.673C299.354 191.673 298.327 191.366 297.407 190.753C296.487 190.14 295.76 189.286 295.227 188.193C294.707 187.086 294.447 185.813 294.447 184.373C294.447 182.92 294.707 181.653 295.227 180.573C295.747 179.48 296.46 178.633 297.367 178.033C298.274 177.42 299.3 177.113 300.447 177.113C301.607 177.113 302.64 177.42 303.547 178.033C304.454 178.633 305.167 179.48 305.687 180.573C306.22 181.666 306.487 182.94 306.487 184.393C306.487 185.846 306.22 187.12 305.687 188.213C305.167 189.306 304.454 190.16 303.547 190.773C302.654 191.373 301.634 191.673 300.487 191.673ZM300.467 188.893C301.054 188.893 301.56 188.726 301.987 188.393C302.414 188.046 302.74 187.54 302.967 186.873C303.207 186.193 303.327 185.366 303.327 184.393C303.327 183.406 303.207 182.58 302.967 181.913C302.74 181.246 302.414 180.746 301.987 180.413C301.56 180.066 301.047 179.893 300.447 179.893C299.874 179.893 299.367 180.06 298.927 180.393C298.5 180.726 298.174 181.226 297.947 181.893C297.72 182.56 297.607 183.386 297.607 184.373C297.607 185.36 297.72 186.186 297.947 186.853C298.174 187.52 298.5 188.026 298.927 188.373C299.367 188.72 299.88 188.893 300.467 188.893ZM310.747 183.013C310.201 183.013 309.701 182.886 309.247 182.633C308.807 182.366 308.454 182.013 308.187 181.573C307.921 181.12 307.787 180.613 307.787 180.053C307.787 179.506 307.921 179.013 308.187 178.573C308.454 178.133 308.807 177.786 309.247 177.533C309.687 177.266 310.181 177.133 310.727 177.133C311.301 177.133 311.807 177.266 312.247 177.533C312.701 177.786 313.061 178.133 313.327 178.573C313.594 179.013 313.727 179.506 313.727 180.053C313.727 180.613 313.594 181.12 313.327 181.573C313.061 182.013 312.701 182.366 312.247 182.633C311.807 182.886 311.307 183.013 310.747 183.013ZM310.747 180.933C311.001 180.933 311.207 180.853 311.367 180.693C311.527 180.533 311.607 180.326 311.607 180.073C311.607 179.82 311.527 179.613 311.367 179.453C311.207 179.293 311.001 179.213 310.747 179.213C310.507 179.213 310.307 179.293 310.147 179.453C309.987 179.613 309.907 179.82 309.907 180.073C309.907 180.326 309.987 180.533 310.147 180.693C310.307 180.853 310.507 180.933 310.747 180.933ZM317.187 191.653C316.641 191.653 316.141 191.52 315.687 191.253C315.247 190.986 314.894 190.633 314.627 190.193C314.361 189.74 314.227 189.24 314.227 188.693C314.227 188.133 314.361 187.64 314.627 187.213C314.894 186.773 315.247 186.42 315.687 186.153C316.127 185.886 316.621 185.753 317.167 185.753C317.741 185.753 318.247 185.886 318.687 186.153C319.141 186.42 319.501 186.773 319.767 187.213C320.034 187.64 320.167 188.133 320.167 188.693C320.167 189.24 320.034 189.74 319.767 190.193C319.501 190.646 319.141 191.006 318.687 191.273C318.247 191.526 317.747 191.653 317.187 191.653ZM317.187 189.573C317.441 189.573 317.647 189.493 317.807 189.333C317.967 189.173 318.047 188.96 318.047 188.693C318.047 188.453 317.967 188.253 317.807 188.093C317.647 187.92 317.441 187.833 317.187 187.833C316.947 187.833 316.747 187.92 316.587 188.093C316.427 188.253 316.347 188.453 316.347 188.693C316.347 188.96 316.427 189.173 316.587 189.333C316.747 189.493 316.947 189.573 317.187 189.573ZM308.347 191.453L316.807 177.333H319.607L311.147 191.453H308.347Z"
    fill="#616161" />
  <path
    d="M40.5515 56.2173V60.1853H69.0315V56.2173H40.5515ZM56.9675 57.8173L53.0955 58.7133C55.5275 67.5133 59.5275 74.1373 66.8555 77.5613C67.4955 76.4413 68.7755 74.7773 69.7355 73.9133C62.9515 71.2253 58.8875 65.1453 56.9675 57.8173ZM52.5515 47.6093C52.4555 56.2813 53.0315 68.4413 39.9115 74.2973C41.0315 75.1293 42.2155 76.5053 42.8235 77.5613C56.5515 70.9373 56.6155 57.3693 56.7755 47.6093H52.5515ZM77.5115 49.0813V52.3133H94.2475V55.0653H77.5115V58.2973H98.1195V49.0813H77.5115ZM75.2395 49.0813V56.9533C75.2395 62.0413 74.9195 69.4013 71.3995 74.3933C72.2315 74.8093 73.8635 76.1213 74.4715 76.8253C78.3755 71.3533 79.0155 62.5853 79.0155 56.9533V49.0813H75.2395ZM77.6075 60.3453V63.7053H97.8315V60.3453H77.6075ZM82.4395 65.5613V68.6013H89.5115V71.4493H82.4395V74.4893H93.0955V65.5613H82.4395ZM80.4235 65.5613V76.4093H83.9435V65.5613H80.4235ZM96.5835 60.3453V61.0173C96.3595 69.7213 96.0075 72.9213 95.3995 73.6573C95.1115 74.0413 94.8235 74.1373 94.3115 74.1373C93.7355 74.1373 92.5835 74.1053 91.2715 74.0093C91.8475 74.9693 92.2635 76.5053 92.3275 77.5933C93.9275 77.6573 95.3995 77.6253 96.3275 77.4973C97.3515 77.3373 98.0875 77.0173 98.7915 76.0893C99.7515 74.8733 100.072 71.2253 100.424 61.9133C100.456 61.4333 100.456 60.3453 100.456 60.3453H96.5835ZM118.76 58.2973C120.424 58.2973 121.8 57.0173 121.8 55.2893C121.8 53.5293 120.424 52.2493 118.76 52.2493C117.064 52.2493 115.688 53.5293 115.688 55.2893C115.688 57.0173 117.064 58.2973 118.76 58.2973ZM118.76 73.5613C120.424 73.5613 121.8 72.2813 121.8 70.5533C121.8 68.7933 120.424 67.5133 118.76 67.5133C117.064 67.5133 115.688 68.7933 115.688 70.5533C115.688 72.2813 117.064 73.5613 118.76 73.5613ZM157.288 50.4573C159.016 52.0253 161.032 54.2653 161.864 55.8013L164.968 53.6253C164.008 52.1213 161.928 49.9773 160.168 48.4733L157.288 50.4573ZM136.328 56.6973V60.3453H165.224V56.6973H136.328ZM135.72 65.7533L136.68 69.6253C140.808 68.7933 146.376 67.6733 151.56 66.5853L151.272 63.0973C145.672 64.1213 139.592 65.1773 135.72 65.7533ZM142.408 51.5453V73.1133C142.408 73.6573 142.216 73.8173 141.64 73.8173C141.064 73.8493 139.208 73.8493 137.384 73.7533C137.96 74.8413 138.6 76.5693 138.76 77.6573C141.384 77.6573 143.272 77.5293 144.552 76.9213C145.864 76.3133 146.28 75.2573 146.28 73.1773V51.5453H142.408ZM148.968 47.8013C145.672 48.9213 140.68 49.9133 136.168 50.5213C136.616 51.3853 137.096 52.8253 137.288 53.7213C141.928 53.2093 147.4 52.3453 151.56 51.0653L148.968 47.8013ZM152.104 47.8653C152.2 62.2333 154.696 77.7853 161.32 77.7853C164.232 77.7853 165.448 76.3773 166.056 70.7133C165.032 70.2973 163.72 69.4013 162.92 68.5053C162.728 72.3133 162.376 73.8813 161.704 73.8813C158.792 73.8813 155.912 60.7613 156.136 47.8653H152.104ZM160.808 61.4013C157.96 66.6813 152.744 71.0333 147.272 73.5293C148.232 74.3933 149.288 75.6733 149.864 76.6333C155.656 73.5613 160.872 68.7933 164.2 62.8413L160.808 61.4013ZM189.288 50.4573C191.016 52.0253 193.032 54.2653 193.864 55.8013L196.968 53.6253C196.008 52.1213 193.928 49.9773 192.168 48.4733L189.288 50.4573ZM168.328 56.6973V60.3453H197.224V56.6973H168.328ZM167.72 65.7533L168.68 69.6253C172.808 68.7933 178.376 67.6733 183.56 66.5853L183.272 63.0973C177.672 64.1213 171.592 65.1773 167.72 65.7533ZM174.408 51.5453V73.1133C174.408 73.6573 174.216 73.8173 173.64 73.8173C173.064 73.8493 171.208 73.8493 169.384 73.7533C169.96 74.8413 170.6 76.5693 170.76 77.6573C173.384 77.6573 175.272 77.5293 176.552 76.9213C177.864 76.3133 178.28 75.2573 178.28 73.1773V51.5453H174.408ZM180.968 47.8013C177.672 48.9213 172.68 49.9133 168.168 50.5213C168.616 51.3853 169.096 52.8253 169.288 53.7213C173.928 53.2093 179.4 52.3453 183.56 51.0653L180.968 47.8013ZM184.104 47.8653C184.2 62.2333 186.696 77.7853 193.32 77.7853C196.232 77.7853 197.448 76.3773 198.056 70.7133C197.032 70.2973 195.72 69.4013 194.92 68.5053C194.728 72.3133 194.376 73.8813 193.704 73.8813C190.792 73.8813 187.912 60.7613 188.136 47.8653H184.104ZM192.808 61.4013C189.96 66.6813 184.744 71.0333 179.272 73.5293C180.232 74.3933 181.288 75.6733 181.864 76.6333C187.656 73.5613 192.872 68.7933 196.2 62.8413L192.808 61.4013ZM221.288 50.4573C223.016 52.0253 225.032 54.2653 225.864 55.8013L228.968 53.6253C228.008 52.1213 225.928 49.9773 224.168 48.4733L221.288 50.4573ZM200.328 56.6973V60.3453H229.224V56.6973H200.328ZM199.72 65.7533L200.68 69.6253C204.808 68.7933 210.376 67.6733 215.56 66.5853L215.272 63.0973C209.672 64.1213 203.592 65.1773 199.72 65.7533ZM206.408 51.5453V73.1133C206.408 73.6573 206.216 73.8173 205.64 73.8173C205.064 73.8493 203.208 73.8493 201.384 73.7533C201.96 74.8413 202.6 76.5693 202.76 77.6573C205.384 77.6573 207.272 77.5293 208.552 76.9213C209.864 76.3133 210.28 75.2573 210.28 73.1773V51.5453H206.408ZM212.968 47.8013C209.672 48.9213 204.68 49.9133 200.168 50.5213C200.616 51.3853 201.096 52.8253 201.288 53.7213C205.928 53.2093 211.4 52.3453 215.56 51.0653L212.968 47.8013ZM216.104 47.8653C216.2 62.2333 218.696 77.7853 225.32 77.7853C228.232 77.7853 229.448 76.3773 230.056 70.7133C229.032 70.2973 227.72 69.4013 226.92 68.5053C226.728 72.3133 226.376 73.8813 225.704 73.8813C222.792 73.8813 219.912 60.7613 220.136 47.8653H216.104ZM224.808 61.4013C221.96 66.6813 216.744 71.0333 211.272 73.5293C212.232 74.3933 213.288 75.6733 213.864 76.6333C219.656 73.5613 224.872 68.7933 228.2 62.8413L224.808 61.4013ZM253.288 50.4573C255.016 52.0253 257.032 54.2653 257.864 55.8013L260.968 53.6253C260.008 52.1213 257.928 49.9773 256.168 48.4733L253.288 50.4573ZM232.328 56.6973V60.3453H261.224V56.6973H232.328ZM231.72 65.7533L232.68 69.6253C236.808 68.7933 242.376 67.6733 247.56 66.5853L247.272 63.0973C241.672 64.1213 235.592 65.1773 231.72 65.7533ZM238.408 51.5453V73.1133C238.408 73.6573 238.216 73.8173 237.64 73.8173C237.064 73.8493 235.208 73.8493 233.384 73.7533C233.96 74.8413 234.6 76.5693 234.76 77.6573C237.384 77.6573 239.272 77.5293 240.552 76.9213C241.864 76.3133 242.28 75.2573 242.28 73.1773V51.5453H238.408ZM244.968 47.8013C241.672 48.9213 236.68 49.9133 232.168 50.5213C232.616 51.3853 233.096 52.8253 233.288 53.7213C237.928 53.2093 243.4 52.3453 247.56 51.0653L244.968 47.8013ZM248.104 47.8653C248.2 62.2333 250.696 77.7853 257.32 77.7853C260.232 77.7853 261.448 76.3773 262.056 70.7133C261.032 70.2973 259.72 69.4013 258.92 68.5053C258.728 72.3133 258.376 73.8813 257.704 73.8813C254.792 73.8813 251.912 60.7613 252.136 47.8653H248.104ZM256.808 61.4013C253.96 66.6813 248.744 71.0333 243.272 73.5293C244.232 74.3933 245.288 75.6733 245.864 76.6333C251.656 73.5613 256.872 68.7933 260.2 62.8413L256.808 61.4013ZM285.288 50.4573C287.016 52.0253 289.032 54.2653 289.864 55.8013L292.968 53.6253C292.008 52.1213 289.928 49.9773 288.168 48.4733L285.288 50.4573ZM264.328 56.6973V60.3453H293.224V56.6973H264.328ZM263.72 65.7533L264.68 69.6253C268.808 68.7933 274.376 67.6733 279.56 66.5853L279.272 63.0973C273.672 64.1213 267.592 65.1773 263.72 65.7533ZM270.408 51.5453V73.1133C270.408 73.6573 270.216 73.8173 269.64 73.8173C269.064 73.8493 267.208 73.8493 265.384 73.7533C265.96 74.8413 266.6 76.5693 266.76 77.6573C269.384 77.6573 271.272 77.5293 272.552 76.9213C273.864 76.3133 274.28 75.2573 274.28 73.1773V51.5453H270.408ZM276.968 47.8013C273.672 48.9213 268.68 49.9133 264.168 50.5213C264.616 51.3853 265.096 52.8253 265.288 53.7213C269.928 53.2093 275.4 52.3453 279.56 51.0653L276.968 47.8013ZM280.104 47.8653C280.2 62.2333 282.696 77.7853 289.32 77.7853C292.232 77.7853 293.448 76.3773 294.056 70.7133C293.032 70.2973 291.72 69.4013 290.92 68.5053C290.728 72.3133 290.376 73.8813 289.704 73.8813C286.792 73.8813 283.912 60.7613 284.136 47.8653H280.104ZM288.808 61.4013C285.96 66.6813 280.744 71.0333 275.272 73.5293C276.232 74.3933 277.288 75.6733 277.864 76.6333C283.656 73.5613 288.872 68.7933 292.2 62.8413L288.808 61.4013ZM61.2875 96.4573C63.0155 98.0253 65.0315 100.265 65.8635 101.801L68.9675 99.6253C68.0075 98.1213 65.9275 95.9773 64.1675 94.4733L61.2875 96.4573ZM40.3275 102.697V106.345H69.2235V102.697H40.3275ZM39.7195 111.753L40.6795 115.625C44.8075 114.793 50.3755 113.673 55.5595 112.585L55.2715 109.097C49.6715 110.121 43.5915 111.177 39.7195 111.753ZM46.4075 97.5453V119.113C46.4075 119.657 46.2155 119.817 45.6395 119.817C45.0635 119.849 43.2075 119.849 41.3835 119.753C41.9595 120.841 42.5995 122.569 42.7595 123.657C45.3835 123.657 47.2715 123.529 48.5515 122.921C49.8635 122.313 50.2795 121.257 50.2795 119.177V97.5453H46.4075ZM52.9675 93.8013C49.6715 94.9213 44.6795 95.9133 40.1675 96.5213C40.6155 97.3853 41.0955 98.8253 41.2875 99.7213C45.9275 99.2093 51.3995 98.3453 55.5595 97.0653L52.9675 93.8013ZM56.1035 93.8653C56.1995 108.233 58.6955 123.785 65.3195 123.785C68.2315 123.785 69.4475 122.377 70.0555 116.713C69.0315 116.297 67.7195 115.401 66.9195 114.505C66.7275 118.313 66.3755 119.881 65.7035 119.881C62.7915 119.881 59.9115 106.761 60.1355 93.8653H56.1035ZM64.8075 107.401C61.9595 112.681 56.7435 117.033 51.2715 119.529C52.2315 120.393 53.2875 121.673 53.8635 122.633C59.6555 119.561 64.8715 114.793 68.1995 108.841L64.8075 107.401ZM93.2875 96.4573C95.0155 98.0253 97.0315 100.265 97.8635 101.801L100.968 99.6253C100.008 98.1213 97.9275 95.9773 96.1675 94.4733L93.2875 96.4573ZM72.3275 102.697V106.345H101.224V102.697H72.3275ZM71.7195 111.753L72.6795 115.625C76.8075 114.793 82.3755 113.673 87.5595 112.585L87.2715 109.097C81.6715 110.121 75.5915 111.177 71.7195 111.753ZM78.4075 97.5453V119.113C78.4075 119.657 78.2155 119.817 77.6395 119.817C77.0635 119.849 75.2075 119.849 73.3835 119.753C73.9595 120.841 74.5995 122.569 74.7595 123.657C77.3835 123.657 79.2715 123.529 80.5515 122.921C81.8635 122.313 82.2795 121.257 82.2795 119.177V97.5453H78.4075ZM84.9675 93.8013C81.6715 94.9213 76.6795 95.9133 72.1675 96.5213C72.6155 97.3853 73.0955 98.8253 73.2875 99.7213C77.9275 99.2093 83.3995 98.3453 87.5595 97.0653L84.9675 93.8013ZM88.1035 93.8653C88.1995 108.233 90.6955 123.785 97.3195 123.785C100.232 123.785 101.448 122.377 102.056 116.713C101.032 116.297 99.7195 115.401 98.9195 114.505C98.7275 118.313 98.3755 119.881 97.7035 119.881C94.7915 119.881 91.9115 106.761 92.1355 93.8653H88.1035ZM96.8075 107.401C93.9595 112.681 88.7435 117.033 83.2715 119.529C84.2315 120.393 85.2875 121.673 85.8635 122.633C91.6555 119.561 96.8715 114.793 100.2 108.841L96.8075 107.401ZM125.288 96.4573C127.016 98.0253 129.032 100.265 129.864 101.801L132.968 99.6253C132.008 98.1213 129.928 95.9773 128.168 94.4733L125.288 96.4573ZM104.328 102.697V106.345H133.224V102.697H104.328ZM103.72 111.753L104.68 115.625C108.808 114.793 114.376 113.673 119.56 112.585L119.272 109.097C113.672 110.121 107.592 111.177 103.72 111.753ZM110.408 97.5453V119.113C110.408 119.657 110.216 119.817 109.64 119.817C109.064 119.849 107.208 119.849 105.384 119.753C105.96 120.841 106.6 122.569 106.76 123.657C109.384 123.657 111.272 123.529 112.552 122.921C113.864 122.313 114.28 121.257 114.28 119.177V97.5453H110.408ZM116.968 93.8013C113.672 94.9213 108.68 95.9133 104.168 96.5213C104.616 97.3853 105.096 98.8253 105.288 99.7213C109.928 99.2093 115.4 98.3453 119.56 97.0653L116.968 93.8013ZM120.104 93.8653C120.2 108.233 122.696 123.785 129.32 123.785C132.232 123.785 133.448 122.377 134.056 116.713C133.032 116.297 131.72 115.401 130.92 114.505C130.728 118.313 130.376 119.881 129.704 119.881C126.792 119.881 123.912 106.761 124.136 93.8653H120.104ZM128.808 107.401C125.96 112.681 120.744 117.033 115.272 119.529C116.232 120.393 117.288 121.673 117.864 122.633C123.656 119.561 128.872 114.793 132.2 108.841L128.808 107.401ZM157.288 96.4573C159.016 98.0253 161.032 100.265 161.864 101.801L164.968 99.6253C164.008 98.1213 161.928 95.9773 160.168 94.4733L157.288 96.4573ZM136.328 102.697V106.345H165.224V102.697H136.328ZM135.72 111.753L136.68 115.625C140.808 114.793 146.376 113.673 151.56 112.585L151.272 109.097C145.672 110.121 139.592 111.177 135.72 111.753ZM142.408 97.5453V119.113C142.408 119.657 142.216 119.817 141.64 119.817C141.064 119.849 139.208 119.849 137.384 119.753C137.96 120.841 138.6 122.569 138.76 123.657C141.384 123.657 143.272 123.529 144.552 122.921C145.864 122.313 146.28 121.257 146.28 119.177V97.5453H142.408ZM148.968 93.8013C145.672 94.9213 140.68 95.9133 136.168 96.5213C136.616 97.3853 137.096 98.8253 137.288 99.7213C141.928 99.2093 147.4 98.3453 151.56 97.0653L148.968 93.8013ZM152.104 93.8653C152.2 108.233 154.696 123.785 161.32 123.785C164.232 123.785 165.448 122.377 166.056 116.713C165.032 116.297 163.72 115.401 162.92 114.505C162.728 118.313 162.376 119.881 161.704 119.881C158.792 119.881 155.912 106.761 156.136 93.8653H152.104ZM160.808 107.401C157.96 112.681 152.744 117.033 147.272 119.529C148.232 120.393 149.288 121.673 149.864 122.633C155.656 119.561 160.872 114.793 164.2 108.841L160.808 107.401ZM189.288 96.4573C191.016 98.0253 193.032 100.265 193.864 101.801L196.968 99.6253C196.008 98.1213 193.928 95.9773 192.168 94.4733L189.288 96.4573ZM168.328 102.697V106.345H197.224V102.697H168.328ZM167.72 111.753L168.68 115.625C172.808 114.793 178.376 113.673 183.56 112.585L183.272 109.097C177.672 110.121 171.592 111.177 167.72 111.753ZM174.408 97.5453V119.113C174.408 119.657 174.216 119.817 173.64 119.817C173.064 119.849 171.208 119.849 169.384 119.753C169.96 120.841 170.6 122.569 170.76 123.657C173.384 123.657 175.272 123.529 176.552 122.921C177.864 122.313 178.28 121.257 178.28 119.177V97.5453H174.408ZM180.968 93.8013C177.672 94.9213 172.68 95.9133 168.168 96.5213C168.616 97.3853 169.096 98.8253 169.288 99.7213C173.928 99.2093 179.4 98.3453 183.56 97.0653L180.968 93.8013ZM184.104 93.8653C184.2 108.233 186.696 123.785 193.32 123.785C196.232 123.785 197.448 122.377 198.056 116.713C197.032 116.297 195.72 115.401 194.92 114.505C194.728 118.313 194.376 119.881 193.704 119.881C190.792 119.881 187.912 106.761 188.136 93.8653H184.104ZM192.808 107.401C189.96 112.681 184.744 117.033 179.272 119.529C180.232 120.393 181.288 121.673 181.864 122.633C187.656 119.561 192.872 114.793 196.2 108.841L192.808 107.401ZM221.288 96.4573C223.016 98.0253 225.032 100.265 225.864 101.801L228.968 99.6253C228.008 98.1213 225.928 95.9773 224.168 94.4733L221.288 96.4573ZM200.328 102.697V106.345H229.224V102.697H200.328ZM199.72 111.753L200.68 115.625C204.808 114.793 210.376 113.673 215.56 112.585L215.272 109.097C209.672 110.121 203.592 111.177 199.72 111.753ZM206.408 97.5453V119.113C206.408 119.657 206.216 119.817 205.64 119.817C205.064 119.849 203.208 119.849 201.384 119.753C201.96 120.841 202.6 122.569 202.76 123.657C205.384 123.657 207.272 123.529 208.552 122.921C209.864 122.313 210.28 121.257 210.28 119.177V97.5453H206.408ZM212.968 93.8013C209.672 94.9213 204.68 95.9133 200.168 96.5213C200.616 97.3853 201.096 98.8253 201.288 99.7213C205.928 99.2093 211.4 98.3453 215.56 97.0653L212.968 93.8013ZM216.104 93.8653C216.2 108.233 218.696 123.785 225.32 123.785C228.232 123.785 229.448 122.377 230.056 116.713C229.032 116.297 227.72 115.401 226.92 114.505C226.728 118.313 226.376 119.881 225.704 119.881C222.792 119.881 219.912 106.761 220.136 93.8653H216.104ZM224.808 107.401C221.96 112.681 216.744 117.033 211.272 119.529C212.232 120.393 213.288 121.673 213.864 122.633C219.656 119.561 224.872 114.793 228.2 108.841L224.808 107.401ZM253.288 96.4573C255.016 98.0253 257.032 100.265 257.864 101.801L260.968 99.6253C260.008 98.1213 257.928 95.9773 256.168 94.4733L253.288 96.4573ZM232.328 102.697V106.345H261.224V102.697H232.328ZM231.72 111.753L232.68 115.625C236.808 114.793 242.376 113.673 247.56 112.585L247.272 109.097C241.672 110.121 235.592 111.177 231.72 111.753ZM238.408 97.5453V119.113C238.408 119.657 238.216 119.817 237.64 119.817C237.064 119.849 235.208 119.849 233.384 119.753C233.96 120.841 234.6 122.569 234.76 123.657C237.384 123.657 239.272 123.529 240.552 122.921C241.864 122.313 242.28 121.257 242.28 119.177V97.5453H238.408ZM244.968 93.8013C241.672 94.9213 236.68 95.9133 232.168 96.5213C232.616 97.3853 233.096 98.8253 233.288 99.7213C237.928 99.2093 243.4 98.3453 247.56 97.0653L244.968 93.8013ZM248.104 93.8653C248.2 108.233 250.696 123.785 257.32 123.785C260.232 123.785 261.448 122.377 262.056 116.713C261.032 116.297 259.72 115.401 258.92 114.505C258.728 118.313 258.376 119.881 257.704 119.881C254.792 119.881 251.912 106.761 252.136 93.8653H248.104ZM256.808 107.401C253.96 112.681 248.744 117.033 243.272 119.529C244.232 120.393 245.288 121.673 245.864 122.633C251.656 119.561 256.872 114.793 260.2 108.841L256.808 107.401Z"
    fill="#616161" />
  <g clip-path="url(#clip0_1024_3531)">
    <path
      d="M256.319 175.009V173.953C256.319 173.401 255.871 172.953 255.319 172.953C254.767 172.953 254.319 173.401 254.319 173.953V175.005C247.403 175.527 243.947 180.599 243.319 184.911C245.183 182.234 249.455 182.234 251.319 184.911C253.158 182.27 257.366 182.226 259.236 184.911C261.1 182.234 265.455 182.234 267.319 184.911C266.694 180.62 263.194 175.578 256.319 175.009V175.009ZM256.319 185.11V191.953C256.319 193.61 254.976 194.953 253.319 194.953C251.662 194.953 250.319 193.61 250.319 191.953V190.953H252.319V191.953C252.319 192.504 252.768 192.953 253.319 192.953C253.87 192.953 254.319 192.504 254.319 191.953V185.087C254.999 184.861 255.589 184.845 256.319 185.11Z"
      fill="#616161" />
  </g>
  <defs>
    <filter id="filter0_ddd_1024_3531" x="0.343018" y="0" width="353" height="234.872" filterUnits="userSpaceOnUse"
      color-interpolation-filters="sRGB">
      <feFlood flood-opacity="0" result="BackgroundImageFix" />
      <feColorMatrix in="SourceAlpha" type="matrix" values="0 0 0 0 0 0 0 0 0 0 0 0 0 0 0 0 0 0 127 0"
        result="hardAlpha" />
      <feMorphology radius="6" operator="erode" in="SourceAlpha" result="effect1_dropShadow_1024_3531" />
      <feOffset dx="7" dy="6" />
      <feGaussianBlur stdDeviation="3.5" />
      <feComposite in2="hardAlpha" operator="out" />
      <feColorMatrix type="matrix" values="0 0 0 0 0 0 0 0 0 0 0 0 0 0 0 0 0 0 0.11 0" />
      <feBlend mode="normal" in2="BackgroundImageFix" result="effect1_dropShadow_1024_3531" />
      <feColorMatrix in="SourceAlpha" type="matrix" values="0 0 0 0 0 0 0 0 0 0 0 0 0 0 0 0 0 0 127 0"
        result="hardAlpha" />
      <feMorphology radius="14" operator="erode" in="SourceAlpha" result="effect2_dropShadow_1024_3531" />
      <feOffset dx="6" dy="6" />
      <feGaussianBlur stdDeviation="9" />
      <feComposite in2="hardAlpha" operator="out" />
      <feColorMatrix type="matrix" values="0 0 0 0 0.529485 0 0 0 0 0.529485 0 0 0 0 0.529485 0 0 0 1 0" />
      <feBlend mode="normal" in2="effect1_dropShadow_1024_3531" result="effect2_dropShadow_1024_3531" />

      <feOffset dx="-5" dy="-5" />
      <feGaussianBlur stdDeviation="7.5" />
      <feComposite in2="hardAlpha" operator="out" />
      <feBlend mode="normal" in2="effect2_dropShadow_1024_3531" result="effect3_dropShadow_1024_3531" />
      <feBlend mode="normal" in="SourceGraphic" in2="effect3_dropShadow_1024_3531" result="shape" />
    </filter>
    <clipPath id="clip0_1024_3531">
      <rect width="24" height="24" fill="white" transform="translate(243.319 171.953)" />
    </clipPath>
  </defs>
</svg>