<svg width="200" height="180" viewBox="0 0 200 180" fill="none" xmlns="http://www.w3.org/2000/svg">
  <path
    d="M40 60H70C72.8333 60 75.21 59.04 77.13 57.12C79.0433 55.2067 80 52.8333 80 50C80 47.1667 79.0433 44.79 77.13 42.87C75.21 40.9567 72.8333 40 70 40H40C37.1667 40 34.79 40.9567 32.87 42.87C30.9567 44.79 30 47.1667 30 50C30 52.8333 30.9567 55.2067 32.87 57.12C34.79 59.04 37.1667 60 40 60ZM40 100H70C72.8333 100 75.21 99.04 77.13 97.12C79.0433 95.2067 80 92.8333 80 90C80 87.1667 79.0433 84.79 77.13 82.87C75.21 80.9567 72.8333 80 70 80H40C37.1667 80 34.79 80.9567 32.87 82.87C30.9567 84.79 30 87.1667 30 90C30 92.8333 30.9567 95.2067 32.87 97.12C34.79 99.04 37.1667 100 40 100ZM40 140H70C72.8333 140 75.21 139.04 77.13 137.12C79.0433 135.207 80 132.833 80 130C80 127.167 79.0433 124.79 77.13 122.87C75.21 120.957 72.8333 120 70 120H40C37.1667 120 34.79 120.957 32.87 122.87C30.9567 124.79 30 127.167 30 130C30 132.833 30.9567 135.207 32.87 137.12C34.79 139.04 37.1667 140 40 140ZM125.5 115.75C126.833 115.75 128.083 115.54 129.25 115.12C130.417 114.707 131.5 114 132.5 113L168 77.5C170.167 75.3333 171.21 72.9567 171.13 70.37C171.043 67.79 170 65.5 168 63.5C166 61.5 163.623 60.5 160.87 60.5C158.123 60.5 155.75 61.5 153.75 63.5L125.5 91.75L118.25 84.5C116.25 82.5 113.917 81.54 111.25 81.62C108.583 81.7067 106.25 82.75 104.25 84.75C102.417 86.75 101.457 89.0833 101.37 91.75C101.29 94.4167 102.25 96.75 104.25 98.75L118.5 113C119.5 114 120.583 114.707 121.75 115.12C122.917 115.54 124.167 115.75 125.5 115.75V115.75ZM20 180C14.5 180 9.79333 178.043 5.88 174.13C1.96 170.21 0 165.5 0 160V20C0 14.5 1.96 9.79 5.88 5.87C9.79333 1.95667 14.5 0 20 0H180C185.5 0 190.21 1.95667 194.13 5.87C198.043 9.79 200 14.5 200 20V160C200 165.5 198.043 170.21 194.13 174.13C190.21 178.043 185.5 180 180 180H20Z"
    fill="url(#paint0_linear_403_1302)" />
  <defs>
    <linearGradient id="paint0_linear_403_1302" x1="0" y1="0" x2="229.5" y2="207" gradientUnits="userSpaceOnUse">
      <stop stop-color="#007ADF" />
      <stop offset="1" stop-color="#00ECBC" />
    </linearGradient>
  </defs>
</svg>