<svg width="144" height="180" viewBox="0 0 144 180" fill="none" xmlns="http://www.w3.org/2000/svg">
  <path
    d="M144 158.31V54L90 0H18C8.1 0 0.0900021 8.1 0.0900021 18L0 162C0 171.9 8.01 180 17.91 180H126C130.05 180 133.65 178.65 136.71 176.4L96.84 136.53C89.64 141.21 81.18 144 72 144C47.16 144 27 123.84 27 99C27 74.16 47.16 54 72 54C96.84 54 117 74.16 117 99C117 108.18 114.21 116.64 109.53 123.75L144 158.31ZM45 99C45 113.94 57.06 126 72 126C86.94 126 99 113.94 99 99C99 84.06 86.94 72 72 72C57.06 72 45 84.06 45 99Z"
    fill="url(#paint0_linear_404_1304)" />
  <defs>
    <linearGradient id="paint0_linear_404_1304" x1="-1.06719e-06" y1="6.5" x2="144" y2="190.5"
      gradientUnits="userSpaceOnUse">
      <stop stop-color="#007ADF" />
      <stop offset="1" stop-color="#00ECBC" />
    </linearGradient>
  </defs>
</svg>