<svg width="180" height="180" viewBox="0 0 180 180" fill="none" xmlns="http://www.w3.org/2000/svg">
  <path
    d="M90 80C65 80 43.75 76.0833 26.25 68.25C8.75 60.4167 0 51 0 40C0 29 8.75 19.5833 26.25 11.75C43.75 3.91667 65 0 90 0C115 0 136.25 3.91667 153.75 11.75C171.25 19.5833 180 29 180 40C180 51 171.25 60.4167 153.75 68.25C136.25 76.0833 115 80 90 80ZM90 130C65 130 43.75 126.083 26.25 118.25C8.75 110.417 0 101 0 90V65C0 72.3333 3.41667 78.5433 10.25 83.63C17.0833 88.71 25.25 92.8333 34.75 96C44.25 99.1667 54.1267 101.457 64.38 102.87C74.6267 104.29 83.1667 105 90 105C96.8333 105 105.373 104.29 115.62 102.87C125.873 101.457 135.75 99.1667 145.25 96C154.75 92.8333 162.917 88.71 169.75 83.63C176.583 78.5433 180 72.3333 180 65V90C180 101 171.25 110.417 153.75 118.25C136.25 126.083 115 130 90 130ZM90 180C65 180 43.75 176.083 26.25 168.25C8.75 160.417 0 151 0 140V115C0 122.333 3.41667 128.543 10.25 133.63C17.0833 138.71 25.25 142.833 34.75 146C44.25 149.167 54.1267 151.46 64.38 152.88C74.6267 154.293 83.1667 155 90 155C96.8333 155 105.373 154.293 115.62 152.88C125.873 151.46 135.75 149.167 145.25 146C154.75 142.833 162.917 138.71 169.75 133.63C176.583 128.543 180 122.333 180 115V140C180 151 171.25 160.417 153.75 168.25C136.25 176.083 115 180 90 180Z"
    fill="url(#paint0_linear_404_1306)" />
  <defs>
    <linearGradient id="paint0_linear_404_1306" x1="0" y1="0" x2="180" y2="180" gradientUnits="userSpaceOnUse">
      <stop stop-color="#007ADF" />
      <stop offset="1" stop-color="#00ECBC" />
    </linearGradient>
  </defs>
</svg>