<svg width="181" height="217" viewBox="0 0 181 217" fill="none" xmlns="http://www.w3.org/2000/svg">
  <path fill-rule="evenodd" clip-rule="evenodd"
    d="M88.7572 201.042C83.7034 202.148 78.4538 202.731 73.0682 202.731C32.7138 202.731 0 170.017 0 129.662C0 89.308 32.7138 56.5942 73.0682 56.5942C113.423 56.5942 146.136 89.308 146.136 129.662C146.136 131.482 146.07 133.285 145.939 135.071L115.111 142.129C116.281 138.178 116.909 133.993 116.909 129.662C116.909 105.45 97.2809 85.8215 73.0682 85.8215C48.8556 85.8215 29.2273 105.45 29.2273 129.662C29.2273 153.875 48.8556 173.503 73.0682 173.503C76.2112 173.503 79.2769 173.173 82.2324 172.544L88.7572 201.042Z"
    fill="#EA4335" />
  <rect width="29.3" height="128" fill="#FBBC05" />
  <rect x="114.5" y="115" width="30.2" height="102" fill="#4285F4" />
  <path
    d="M145.776 136.97C146.015 134.567 146.137 132.129 146.137 129.663C146.137 89.3085 113.423 56.5947 73.0685 56.5947C56.6193 56.5947 41.4396 62.0302 29.2275 71.203V127.617C29.2275 127.834 29.2349 128.049 29.2495 128.263C29.9889 104.698 49.3243 85.822 73.0685 85.822C97.2812 85.822 116.909 105.45 116.909 129.663C116.909 132.153 116.702 134.594 116.303 136.97H145.776Z"
    fill="#34A853" />
  <rect x="78.0371" y="115.049" width="102.296" height="29.2273" fill="#4285F4" />
  <path fill-rule="evenodd" clip-rule="evenodd"
    d="M45.445 95.617L29.2275 71.5146V127.617C29.2275 127.735 29.2297 127.852 29.2341 127.969L29.2603 127.952C29.7609 114.905 35.9627 103.32 45.445 95.617Z"
    fill="#FBBC05" />
</svg>