<!-- sample rectangle -->
<svg width="208" height="208" viewBox="0 0 208 208" fill="none" xmlns="http://www.w3.org/2000/svg">
  <g clip-path="url(#clip0_278_238)">
    <path
      d="M170.773 136.925V138.931L104.97 102.079C104.367 101.741 103.633 101.741 103.029 102.079L37.236 138.925V136.961H35.8564V140.729C35.853 140.775 35.8472 140.82 35.8472 140.867C35.8472 141.586 36.2354 142.249 36.8629 142.6L103.029 179.655C103.331 179.824 103.665 179.909 104 179.909C104.334 179.909 104.669 179.824 104.97 179.655L171.137 142.6C171.764 142.249 172.153 141.586 172.153 140.867V136.924L170.773 136.925Z"
      fill="#C47516" />
    <path
      d="M171.137 135.309L104.97 98.2533C104.367 97.9159 103.633 97.9159 103.029 98.2533L36.8629 135.309C36.2354 135.66 35.8472 136.323 35.8472 137.042C35.8472 137.761 36.2354 138.424 36.8629 138.775L103.029 175.831C103.331 175.999 103.665 176.084 104 176.084C104.334 176.084 104.669 175.999 104.97 175.831L171.137 138.775C171.764 138.424 172.153 137.761 172.153 137.042C172.153 136.323 171.764 135.66 171.137 135.309Z"
      fill="#D68922" />
    <path
      d="M144.909 136.524L109.622 31.3285C109.423 30.7341 108.866 30.3337 108.239 30.3337H100.092C99.4666 30.3337 98.9107 30.732 98.7103 31.3248L63.0927 136.52C62.9124 137.053 63.0541 137.642 63.4574 138.034C64.1915 138.748 81.7005 155.514 104.755 155.514C127.847 155.514 143.916 138.703 144.588 137.987C144.956 137.596 145.079 137.034 144.909 136.524Z"
      fill="#E79E2F" />
    <path
      d="M132.176 98.5678C125.259 102.665 115.814 106.521 104.755 106.521C93.3887 106.521 83.3787 102.448 76.0566 98.2307L70.1611 115.643C77.4153 120.782 89.9344 127.707 104.754 127.707C119.337 127.707 131.112 121.006 137.985 115.884L132.176 98.5678Z"
      fill="#F7E7D3" />
    <path
      d="M119.294 60.165C114.874 61.5128 109.997 62.3823 104.755 62.3823C99.1329 62.3823 93.844 61.3841 89.0461 59.8669L82.6895 78.6425C88.9978 81.4252 96.519 83.5687 104.755 83.5687C112.637 83.5687 119.7 81.6084 125.612 78.9996L119.294 60.165Z"
      fill="#F7E7D3" />
    <path
      d="M109.622 31.3287C109.423 30.7342 109.02 30.3209 108.239 30.1373C107.458 29.9536 106.317 29.6589 104.11 29.6589C101.904 29.6589 100.836 29.8979 100.092 30.1373C99.3476 30.3766 98.959 30.7028 98.7397 31.2562C100.763 31.719 102.334 32.0133 104.386 32.0133C106.052 32.0133 108.009 31.719 109.638 31.3773L109.622 31.3287Z"
      fill="#D38722" />
  </g>
</svg>